<svg viewBox="0 0 367 101" fill="none" xmlns="http://www.w3.org/2000/svg">
    <path d="M80.5865 4.33594V96.6642H63.2417L20.8137 38.0026H20.0132V96.6642H0V4.33594H17.6116L59.7728 62.9975H60.7067V4.33594H80.5865Z"
          fill="#2B2B2B"/>
    <path d="M108.403 101L99.3301 95.0063L106.401 85.3144C98.1961 77.2803 93.3262 65.3567 93.3262 50.3725C93.3262 20.2765 112.806 2.93308 138.556 2.93308C147.228 2.93308 155.234 4.97348 162.038 8.79924L168.442 0L177.515 5.86616L170.711 15.303C178.716 23.4646 183.652 35.3245 183.652 50.3725C183.652 80.4684 164.04 97.8119 138.556 97.8119C129.817 97.8119 121.745 95.7715 115.074 91.9457L108.403 101ZM163.239 50.3725C163.239 42.5934 161.705 36.2172 158.969 31.3712L125.614 77.4078C129.217 79.7033 133.619 80.851 138.556 80.851C153.499 80.851 163.239 70.1389 163.239 50.3725ZM113.74 50.3725C113.74 58.0878 115.274 64.464 118.009 69.2462L151.498 23.3371C147.829 21.0417 143.493 19.8939 138.556 19.8939C123.613 19.8939 113.74 30.6061 113.74 50.3725Z"
          fill="#2B2B2B"/>
    <path d="M196.391 96.6642V4.33594H234.282C256.297 4.33594 268.838 16.1958 268.838 34.4319C268.838 47.0569 262.768 56.2387 251.761 60.7021L272.307 96.6642H250.159L231.747 63.8902H216.404V96.6642H196.391ZM216.404 48.3321H230.547C242.421 48.3321 248.158 43.6137 248.158 34.4319C248.158 25.1226 242.421 20.0215 230.547 20.0215H216.404V48.3321Z"
          fill="#2B2B2B"/>
    <path d="M319.069 96.6642H285.047V4.33594H319.47C348.555 4.33594 366.301 21.6794 366.301 50.3726C366.301 79.3208 348.555 96.6642 319.069 96.6642ZM305.06 80.2135H318.269C336.681 80.2135 346.287 71.0316 346.287 50.3726C346.287 29.841 336.681 20.7867 318.402 20.7867H305.06V80.2135Z"
          fill="#2B2B2B"/>
</svg>
